<svg width="734" height="640" viewBox="0 0 734 640" fill="none" xmlns="http://www.w3.org/2000/svg" xmlns:xlink="http://www.w3.org/1999/xlink">
<rect width="734" height="640" fill="url(#pattern0)"/>
<defs>
<pattern id="pattern0" patternContentUnits="objectBoundingBox" width="1" height="1">
<use xlink:href="#image0" transform="translate(-0.00408719) scale(0.0013624 0.0015625)"/>
</pattern>
<image id="image0" width="740" height="640" xlink:href="img/home.png"/>
</defs>
<path d="M223 533L443.8 541L513 527.3V549L444.5 568.7L223 557.7V533Z" fill="#3595F6" fill-opacity="0.75"/>
<path d="M223 533V508L443.3 511.3L513 508V528L443.7 541L223 533Z" fill="#3595F6" fill-opacity="0.75"/>
<path d="M223 508V483H444H513V506L445 513L223 508Z" fill="#3595F6" fill-opacity="0.75"/>
<path d="M223 483V458L444.3 454.3L512 461V483H444" fill="#3595F6" fill-opacity="0.75"/>
<path d="M223 457V431L444.5 427.7L513 438.7V460L444 453.3L223 457Z" fill="#3595F6" fill-opacity="0.75"/>
<path d="M222 430V406.3L443 394L514 417V438.3L443 426L222 430Z" fill="#3595F6" fill-opacity="0.75"/>
<path d="M222 407V382L444.2 365.7L514 394.3V415L443.7 393.3L222 407Z" fill="#3595F6" fill-opacity="0.75"/>
<path d="M222 381V356L444.5 335.7L514 372.3V393L442 364.3L222 381Z" fill="#3595F6" fill-opacity="0.75"/>
<path d="M222 356V332L445 307.3L514 351.3V373L444.7 335L222 356Z" fill="#3595F6" fill-opacity="0.75"/>
<path d="M222 332V308L444.5 279.3L514 330.3V351L443.7 308.7L222 332Z" fill="#3595F6" fill-opacity="0.75"/>
<path d="M223 308V284L445.3 251L516 310.3V330L446 279.3L223 308Z" fill="#3595F6" fill-opacity="0.75"/>
<path d="M224 287.329V259.941L445.2 220L515 293.035V317L446.3 250.469L224 287.329Z" fill="#3595F6" fill-opacity="0.75"/>
<path d="M223 261V232.429L445.3 189L514 269.343V293L445 219.857L223 261Z" fill="#3595F6" fill-opacity="0.75"/>
<path d="M223 234.36V205.845L443.8 156L514 246.108V272L445 188.393L223 234.36Z" fill="#3595F6" fill-opacity="0.75"/>
<path d="M224 206.139V177.667L444 123L514 219.806V246L443.3 155.686L224 206.139Z" fill="#3595F6" fill-opacity="0.75"/>
<path d="M225 178V153L444.8 101L516 193.3V216L446.3 129.7L225 178Z" fill="#3595F6" fill-opacity="0.75"/>
<path d="M224 155V129L446 72.3L515 174V195L445.7 103.3L224 155Z" fill="#3595F6" fill-opacity="0.75"/>
</svg>
